<svg xmlns="http://www.w3.org/2000/svg" viewBox="0 0 170.15 55.84"><defs><style>.cls-1{fill:#fff;}</style></defs><title>logo_udg_web_cads</title><g id="Capa_2" data-name="Capa 2"><g id="Capa_1-2" data-name="Capa 1"><path class="cls-1" d="M56.61,9.5V9.18h4.15V9.5h-.44a1.18,1.18,0,0,0-1.06.58,2.61,2.61,0,0,0-.19,1.24v4.76a8.45,8.45,0,0,1-.34,2.73,3.55,3.55,0,0,1-1.38,1.68,4.92,4.92,0,0,1-2.79.69,5.18,5.18,0,0,1-2.91-.67,3.47,3.47,0,0,1-1.41-1.79A9.64,9.64,0,0,1,50,15.84V11.25a2.3,2.3,0,0,0-.3-1.42,1.24,1.24,0,0,0-1-.33h-.44V9.18h5.06V9.5h-.44a1.14,1.14,0,0,0-1,.46,2.45,2.45,0,0,0-.22,1.29v5.11a10.45,10.45,0,0,0,.13,1.57,3.19,3.19,0,0,0,.45,1.37,2.49,2.49,0,0,0,.95.82,3.3,3.3,0,0,0,1.51.32,4.22,4.22,0,0,0,2.06-.5A2.77,2.77,0,0,0,58,18.65,7.47,7.47,0,0,0,58.3,16V11.25a2.41,2.41,0,0,0-.24-1.37,1.26,1.26,0,0,0-1-.38Z"/><path class="cls-1" d="M60.77,11.52h2.54l5.74,7V13.15a1.83,1.83,0,0,0-.2-1.08,1,1,0,0,0-.81-.29h-.32v-.26H71v.26h-.33a1,1,0,0,0-.84.36,2.12,2.12,0,0,0-.15,1v7.91h-.25L63.22,13.5v5.78a1.85,1.85,0,0,0,.19,1.08,1.05,1.05,0,0,0,.81.29h.33v.26H61.29v-.26h.32a1,1,0,0,0,.85-.36,2.15,2.15,0,0,0,.15-1V12.76a4,4,0,0,0-.62-.63,2,2,0,0,0-.61-.29,2.34,2.34,0,0,0-.61-.06Z"/><path class="cls-1" d="M75.56,20.65v.26h-4v-.26h.33a1,1,0,0,0,.84-.34,2.09,2.09,0,0,0,.17-1.06V13.18a3.11,3.11,0,0,0-.09-.94.65.65,0,0,0-.28-.29,1.25,1.25,0,0,0-.64-.17h-.33v-.26h4v.26h-.34a1,1,0,0,0-.84.34,2.09,2.09,0,0,0-.17,1.06v6.07a3,3,0,0,0,.09.93.6.6,0,0,0,.29.3,1.29,1.29,0,0,0,.63.17Z"/><path class="cls-1" d="M86,11.52v.26a1.53,1.53,0,0,0-.75.32,2.9,2.9,0,0,0-.65,1l-3.27,8H81L77.52,13a4.62,4.62,0,0,0-.39-.76,1.14,1.14,0,0,0-.42-.33,1.7,1.7,0,0,0-.68-.16v-.26h3.83v.26A1.8,1.8,0,0,0,79,12a.51.51,0,0,0-.2.41,3.2,3.2,0,0,0,.32,1.08L81.53,19l2.21-5.43a3.66,3.66,0,0,0,.33-1.12.53.53,0,0,0-.2-.38,1.36,1.36,0,0,0-.68-.26l-.12,0v-.26Z"/><path class="cls-1" d="M89.1,12v3.7h2.06a1.67,1.67,0,0,0,1.07-.24,1.55,1.55,0,0,0,.4-1.12h.26v3.26h-.26a3.62,3.62,0,0,0-.19-.87.89.89,0,0,0-.41-.38,2.12,2.12,0,0,0-.87-.14H89.1v3.09a3.37,3.37,0,0,0,.05.76.43.43,0,0,0,.19.21,1.12,1.12,0,0,0,.53.08h1.59a4.11,4.11,0,0,0,1.16-.11,1.72,1.72,0,0,0,.69-.43,5.28,5.28,0,0,0,.88-1.3h.28l-.81,2.36H86.43v-.26h.33a1.4,1.4,0,0,0,.63-.16.54.54,0,0,0,.3-.33,3.41,3.41,0,0,0,.08-.91V13.16a2,2,0,0,0-.18-1.1,1.05,1.05,0,0,0-.83-.28h-.33v-.26h7.23l.1,2.06h-.27a3.19,3.19,0,0,0-.32-1,1.1,1.1,0,0,0-.52-.42,3.18,3.18,0,0,0-1-.1Z"/><path class="cls-1" d="M97.7,16.08h.39a3,3,0,0,0,2-.58A1.85,1.85,0,0,0,100.8,14a1.89,1.89,0,0,0-2-2,5.91,5.91,0,0,0-1.09.13Zm6.67,4.83h-2.51l-3.17-4.39h-1v2.73a1.87,1.87,0,0,0,.2,1.09,1,1,0,0,0,.79.31h.36v.26H95v-.26h.36a1,1,0,0,0,.85-.39,2.28,2.28,0,0,0,.14-1V13.18a1.93,1.93,0,0,0-.19-1.1,1,1,0,0,0-.8-.3H95v-.26h3.42a8.27,8.27,0,0,1,2.2.22,2.53,2.53,0,0,1,1.21.8,2.1,2.1,0,0,1,.49,1.4,2.17,2.17,0,0,1-.56,1.5,3.27,3.27,0,0,1-1.75.9L102,19a4.64,4.64,0,0,0,1.14,1.23,3,3,0,0,0,1.25.39Z"/><path class="cls-1" d="M110.74,11.31v3.24h-.26a4.06,4.06,0,0,0-.44-1.48,2.3,2.3,0,0,0-.92-.88,2.52,2.52,0,0,0-1.23-.33,1.68,1.68,0,0,0-1.19.44,1.33,1.33,0,0,0-.47,1,1.2,1.2,0,0,0,.29.78,7.68,7.68,0,0,0,2,1.39,14.56,14.56,0,0,1,1.79,1.08,2.61,2.61,0,0,1,.74.89,2.38,2.38,0,0,1,.26,1.07,2.48,2.48,0,0,1-.82,1.84,3,3,0,0,1-2.13.77,4.63,4.63,0,0,1-.77-.06,8.35,8.35,0,0,1-.89-.25,3.74,3.74,0,0,0-.85-.22.37.37,0,0,0-.28.1.86.86,0,0,0-.15.43h-.25V17.9h.25a4.65,4.65,0,0,0,.49,1.52,2.3,2.3,0,0,0,.93.83,2.86,2.86,0,0,0,1.37.33,1.94,1.94,0,0,0,1.37-.46,1.41,1.41,0,0,0,.5-1.08,1.38,1.38,0,0,0-.19-.69,2.13,2.13,0,0,0-.59-.66,16.16,16.16,0,0,0-1.48-.88,14.14,14.14,0,0,1-1.71-1.08,2.91,2.91,0,0,1-.77-.89,2.25,2.25,0,0,1-.26-1.06A2.27,2.27,0,0,1,105.9,12a2.76,2.76,0,0,1,2-.73,3.9,3.9,0,0,1,1.59.37,1.78,1.78,0,0,0,.54.17.44.44,0,0,0,.3-.11.83.83,0,0,0,.18-.43Z"/><path class="cls-1" d="M116.5,20.65v.26h-4v-.26h.34a1,1,0,0,0,.84-.34,2.09,2.09,0,0,0,.17-1.06V13.18a3.11,3.11,0,0,0-.09-.94.62.62,0,0,0-.29-.29,1.19,1.19,0,0,0-.63-.17h-.34v-.26h4v.26h-.34a1,1,0,0,0-.84.34,2,2,0,0,0-.18,1.06v6.07a3.4,3.4,0,0,0,.09.93.62.62,0,0,0,.3.3,1.24,1.24,0,0,0,.63.17Z"/><path class="cls-1" d="M119.76,20.23a7,7,0,0,0,1.47.19,3.49,3.49,0,0,0,2.67-1.13A4.31,4.31,0,0,0,125,16.23a4.31,4.31,0,0,0-1.06-3.06,3.57,3.57,0,0,0-2.72-1.12,5.56,5.56,0,0,0-1.42.2Zm-2.68.68v-.26h.35a1,1,0,0,0,.85-.38,2.2,2.2,0,0,0,.15-1V13.18a2,2,0,0,0-.19-1.1,1,1,0,0,0-.81-.3h-.35v-.26h3.82a8.3,8.3,0,0,1,3.2.48,3.87,3.87,0,0,1,1.77,1.59,5,5,0,0,1,.66,2.58,4.67,4.67,0,0,1-1.19,3.27,5.22,5.22,0,0,1-4.07,1.47Z"/><path class="cls-1" d="M133.36,17.25l-1.59-3.79-1.63,3.79Zm.19.51h-3.63l-.63,1.49a2.26,2.26,0,0,0-.24.81.5.5,0,0,0,.2.38,1.77,1.77,0,0,0,.89.21v.26h-3v-.26a1.54,1.54,0,0,0,.76-.27,4.17,4.17,0,0,0,.79-1.35l3.3-7.72h.24l3.26,7.8a3.47,3.47,0,0,0,.72,1.22,1.41,1.41,0,0,0,.9.32v.26h-3.71v-.26a1.35,1.35,0,0,0,.76-.19.47.47,0,0,0,.2-.39,2.79,2.79,0,0,0-.28-1Z"/><path class="cls-1" d="M140.22,20.23a7,7,0,0,0,1.48.19,3.46,3.46,0,0,0,2.66-1.13,4.27,4.27,0,0,0,1.06-3.06,4.27,4.27,0,0,0-1.06-3.06,3.55,3.55,0,0,0-2.72-1.12,5.62,5.62,0,0,0-1.42.2Zm-2.67.68v-.26h.35a.92.92,0,0,0,.84-.38,2,2,0,0,0,.16-1V13.18a1.93,1.93,0,0,0-.2-1.1,1,1,0,0,0-.8-.3h-.35v-.26h3.82a8.3,8.3,0,0,1,3.2.48,3.8,3.8,0,0,1,1.76,1.59,5,5,0,0,1,.67,2.58,4.72,4.72,0,0,1-1.19,3.27,5.23,5.23,0,0,1-4.07,1.47Z"/><path class="cls-1" d="M154,20.23a7,7,0,0,0,1.47.19,3.49,3.49,0,0,0,2.67-1.13,4.31,4.31,0,0,0,1.06-3.06,4.31,4.31,0,0,0-1.06-3.06,3.57,3.57,0,0,0-2.72-1.12,5.56,5.56,0,0,0-1.42.2Zm-2.68.68v-.26h.35a1,1,0,0,0,.85-.38,2.2,2.2,0,0,0,.15-1V13.18a2,2,0,0,0-.19-1.1,1,1,0,0,0-.81-.3h-.35v-.26h3.82a8.3,8.3,0,0,1,3.2.48,3.87,3.87,0,0,1,1.77,1.59,5,5,0,0,1,.67,2.58,4.68,4.68,0,0,1-1.2,3.27,5.22,5.22,0,0,1-4.07,1.47Z"/><path class="cls-1" d="M164.27,12v3.7h2.07a1.69,1.69,0,0,0,1.07-.24,1.55,1.55,0,0,0,.4-1.12h.25v3.26h-.25a3.06,3.06,0,0,0-.2-.87.82.82,0,0,0-.4-.38,2.12,2.12,0,0,0-.87-.14h-2.07v3.09a2.66,2.66,0,0,0,.06.76.43.43,0,0,0,.19.21,1.09,1.09,0,0,0,.53.08h1.59a4,4,0,0,0,1.15-.11,1.75,1.75,0,0,0,.7-.43,5.57,5.57,0,0,0,.88-1.3h.27l-.81,2.36H161.6v-.26h.34a1.33,1.33,0,0,0,.62-.16.59.59,0,0,0,.31-.33,3.55,3.55,0,0,0,.07-.91V13.16a2,2,0,0,0-.18-1.1,1,1,0,0,0-.82-.28h-.34v-.26h7.23l.11,2.06h-.27a3.48,3.48,0,0,0-.32-1,1.12,1.12,0,0,0-.53-.42,3.1,3.1,0,0,0-1-.1Z"/><path class="cls-1" d="M59.89,25.37l.34,4.19h-.34a5.68,5.68,0,0,0-1.34-2.36,4.2,4.2,0,0,0-3-1.14,4.32,4.32,0,0,0-3.86,2,7.18,7.18,0,0,0-1.11,4,8.05,8.05,0,0,0,.74,3.47,5.14,5.14,0,0,0,1.92,2.29,4.58,4.58,0,0,0,2.44.73,5.53,5.53,0,0,0,1.42-.18,5.85,5.85,0,0,0,1.32-.55V34a3.61,3.61,0,0,0-.15-1.31,1,1,0,0,0-.47-.46,2.62,2.62,0,0,0-1.12-.17V31.7h5.14v.37h-.24a1.1,1.1,0,0,0-1,.51,3.46,3.46,0,0,0-.2,1.43v4.06a10.25,10.25,0,0,1-2.22.9,9.68,9.68,0,0,1-2.44.28,7.06,7.06,0,0,1-5.84-2.47,6.57,6.57,0,0,1-1.5-4.27,7,7,0,0,1,.85-3.35,7.13,7.13,0,0,1,2.73-2.94,7.4,7.4,0,0,1,4.77-.73,11.1,11.1,0,0,1,1.68.52,2.88,2.88,0,0,0,.73.2.41.41,0,0,0,.32-.17,1.4,1.4,0,0,0,.16-.67Z"/><path class="cls-1" d="M69.71,28.62v-.29h3.76v.29h-.4a1.07,1.07,0,0,0-1,.52,2.38,2.38,0,0,0-.17,1.13v4.31a7.61,7.61,0,0,1-.31,2.47,3,3,0,0,1-1.25,1.51,4.43,4.43,0,0,1-2.52.64,4.77,4.77,0,0,1-2.64-.61A3.25,3.25,0,0,1,63.94,37a9.19,9.19,0,0,1-.25-2.61V30.21a2.1,2.1,0,0,0-.27-1.29,1.12,1.12,0,0,0-.87-.3h-.4v-.29h4.59v.29h-.41a1.07,1.07,0,0,0-.94.41,2.36,2.36,0,0,0-.19,1.18v4.62a9.47,9.47,0,0,0,.11,1.42,3.11,3.11,0,0,0,.41,1.25,2.23,2.23,0,0,0,.86.73,2.86,2.86,0,0,0,1.37.29,3.77,3.77,0,0,0,1.86-.45,2.43,2.43,0,0,0,1.13-1.16,6.82,6.82,0,0,0,.3-2.4v-4.3A2.17,2.17,0,0,0,71,29a1.15,1.15,0,0,0-.91-.34Z"/><path class="cls-1" d="M80.76,34.81,79,30.52l-1.85,4.29Zm.22.58H76.87l-.72,1.68a2.56,2.56,0,0,0-.27.92.53.53,0,0,0,.23.42,2,2,0,0,0,1,.25v.28H73.77v-.28a1.77,1.77,0,0,0,.86-.31,4.66,4.66,0,0,0,.88-1.53l3.74-8.73h.27l3.7,8.83A4.08,4.08,0,0,0,84,38.3a1.68,1.68,0,0,0,1,.36v.28H80.86v-.28a1.53,1.53,0,0,0,.85-.22.54.54,0,0,0,.23-.44,3.2,3.2,0,0,0-.32-1.08Z"/><path class="cls-1" d="M88.53,38.18a8.43,8.43,0,0,0,1.66.22,4,4,0,0,0,3-1.28,4.84,4.84,0,0,0,1.2-3.46,4.85,4.85,0,0,0-1.2-3.47,4,4,0,0,0-3.08-1.27,6.69,6.69,0,0,0-1.6.23Zm-3,.76v-.28h.4a1,1,0,0,0,.95-.44A2.34,2.34,0,0,0,87,37.07V30.21A2.26,2.26,0,0,0,86.81,29a1.16,1.16,0,0,0-.91-.34h-.4v-.29h4.32a9.43,9.43,0,0,1,3.62.54,4.33,4.33,0,0,1,2,1.8,5.58,5.58,0,0,1,.75,2.91,5.32,5.32,0,0,1-1.34,3.71,6,6,0,0,1-4.61,1.65Z"/><path class="cls-1" d="M103.92,34.81l-1.8-4.29-1.85,4.29Zm.22.58H100l-.72,1.68A2.56,2.56,0,0,0,99,38a.53.53,0,0,0,.23.42,2,2,0,0,0,1,.25v.28H96.93v-.28a1.77,1.77,0,0,0,.86-.31,4.82,4.82,0,0,0,.89-1.53l3.73-8.73h.27l3.7,8.83a4.08,4.08,0,0,0,.81,1.38,1.68,1.68,0,0,0,1,.36v.28H104v-.28a1.55,1.55,0,0,0,.86-.22.54.54,0,0,0,.23-.44,3.2,3.2,0,0,0-.32-1.08Z"/><path class="cls-1" d="M117.58,36l.25.05-.9,2.88h-8.22v-.28h.4a1.06,1.06,0,0,0,1-.44,2.57,2.57,0,0,0,.16-1.16V30.21A2.17,2.17,0,0,0,110,29a1.13,1.13,0,0,0-.9-.34h-.4v-.29h4.8v.29a2.83,2.83,0,0,0-1.18.15.94.94,0,0,0-.47.42,3.59,3.59,0,0,0-.12,1.2v6.67a2.25,2.25,0,0,0,.12.89.54.54,0,0,0,.29.24,4.64,4.64,0,0,0,1.22.08h.78a5.61,5.61,0,0,0,1.71-.18,2.18,2.18,0,0,0,.9-.64,5.07,5.07,0,0,0,.82-1.44"/><path class="cls-1" d="M125.3,34.81l-1.81-4.29-1.84,4.29Zm.22.58h-4.11l-.72,1.68a2.56,2.56,0,0,0-.27.92.53.53,0,0,0,.23.42,2,2,0,0,0,1,.25v.28h-3.34v-.28a1.81,1.81,0,0,0,.86-.31,4.84,4.84,0,0,0,.88-1.53l3.74-8.73h.27l3.7,8.83a3.94,3.94,0,0,0,.8,1.38,1.73,1.73,0,0,0,1,.36v.28h-4.19v-.28a1.57,1.57,0,0,0,.86-.22.53.53,0,0,0,.22-.44,3.12,3.12,0,0,0-.31-1.08Z"/><path class="cls-1" d="M131.36,28.62v-.29h4.55v.29h-.39a1.12,1.12,0,0,0-.94.38,2.34,2.34,0,0,0-.19,1.21V35.4a5.8,5.8,0,0,1-.27,1.94,3,3,0,0,1-.9,1.3,2.35,2.35,0,0,1-1.55.55,1.79,1.79,0,0,1-1.16-.36,1.11,1.11,0,0,1-.42-.84.8.8,0,0,1,.19-.58.89.89,0,0,1,.61-.24.69.69,0,0,1,.45.16,2.75,2.75,0,0,1,.5.88c.12.28.28.42.46.42a.48.48,0,0,0,.4-.26,1.68,1.68,0,0,0,.18-.91V30.21a3.48,3.48,0,0,0-.1-1.07.66.66,0,0,0-.33-.33,1.38,1.38,0,0,0-.71-.19Z"/><path class="cls-1" d="M143.12,34.81l-1.8-4.29-1.85,4.29Zm.22.58h-4.11l-.72,1.68a2.56,2.56,0,0,0-.27.92.53.53,0,0,0,.23.42,2,2,0,0,0,1,.25v.28h-3.34v-.28a1.77,1.77,0,0,0,.86-.31,4.84,4.84,0,0,0,.88-1.53l3.74-8.73h.27l3.7,8.83a3.77,3.77,0,0,0,.81,1.38,1.68,1.68,0,0,0,1,.36v.28h-4.19v-.28a1.57,1.57,0,0,0,.86-.22.53.53,0,0,0,.22-.44,3.12,3.12,0,0,0-.31-1.08Z"/><path class="cls-1" d="M150.88,33.49h.43a3.42,3.42,0,0,0,2.29-.66,2.1,2.1,0,0,0,.78-1.68,2.15,2.15,0,0,0-.63-1.61,2.2,2.2,0,0,0-1.65-.63,6.83,6.83,0,0,0-1.22.15Zm7.54,5.45h-2.84L152,34l-.65,0h-.46v3.09a2.22,2.22,0,0,0,.21,1.24,1.15,1.15,0,0,0,.9.35h.41v.28h-4.55v-.28h.4a1.09,1.09,0,0,0,1-.44,2.67,2.67,0,0,0,.16-1.15V30.21a2.15,2.15,0,0,0-.22-1.25,1.15,1.15,0,0,0-.91-.34h-.4v-.29h3.87a9,9,0,0,1,2.5.25,2.82,2.82,0,0,1,1.36.9,2.4,2.4,0,0,1,.56,1.58,2.47,2.47,0,0,1-.64,1.7,3.62,3.62,0,0,1-2,1l2.2,3a5.31,5.31,0,0,0,1.29,1.4,3.5,3.5,0,0,0,1.41.44Z"/><path class="cls-1" d="M165.39,34.81l-1.8-4.29-1.84,4.29Zm.22.58H161.5l-.72,1.68a2.5,2.5,0,0,0-.26.92.51.51,0,0,0,.23.42,1.92,1.92,0,0,0,1,.25v.28H158.4v-.28a1.73,1.73,0,0,0,.86-.31,4.82,4.82,0,0,0,.89-1.53l3.73-8.73h.28l3.69,8.83a4.08,4.08,0,0,0,.81,1.38,1.68,1.68,0,0,0,1,.36v.28h-4.19v-.28a1.6,1.6,0,0,0,.86-.22.56.56,0,0,0,.22-.44,3.2,3.2,0,0,0-.32-1.08Z"/><path class="cls-1" d="M22.76,5.76V5.29H22v.47h-.46V6.5H22V7h.73V6.5h.46V5.76Zm.35.62h-.47v.48h-.5V6.38h-.46V5.87h.46V5.4h.5v.47h.47ZM18,5.76V5.29h-.73v.47h-.46V6.5h.46V7H18V6.5h.46V5.76Zm.36.62h-.47v.48h-.51V6.38h-.46V5.87h.46V5.4h.51v.47h.47Zm4.43-5.32V.59H22v.47h-.46v.73H22v.48h.73V1.79h.46V1.06Zm.35.62h-.47v.48h-.5V1.68h-.46V1.17h.46V.7h.5v.47h.47ZM18,1.06V.59h-.73v.47h-.46v.73h.46v.48H18V1.79h.46V1.06Zm.36.62h-.47v.48h-.51V1.68h-.46V1.17h.46V.7h.51v.47h.47Zm-.77,15.79.31-.73.31.73-.31.73Zm.91,0,.39-.92.39.92-.39.92Zm4,0-.31-.73-.31.73.31.73Zm-.92,0-.38-.92-.39.92.39.92Zm-1.1,0L20,16.41l-.46,1.06L20,18.53Zm9.53,27.39v-.77H30c0,.15,0,.19.1.19a1.28,1.28,0,0,0,.33-.11v-.53a1.63,1.63,0,0,0-.32-.11c-.1,0-.1.11-.11.2h-.06v-.49H30c0,.13.11.16.29.24l1.36.52v.07l-1.3.53c-.27.11-.36.15-.35.26Zm.59-.73.6-.23-.6-.23Zm1-1.26c0-.13,0-.21-.23-.21H30.24c-.45,0-.54-.27-.54-.52a.36.36,0,0,1,.32-.4.17.17,0,0,1,.18.17.17.17,0,0,1-.18.17c-.09,0-.09-.06-.16-.06s-.08,0-.08.1.14.16.22.16h1.38c.17,0,.17-.11.18-.24h.06v.83Zm-1.62-1.59v-.77H30c0,.14,0,.19.1.19a1.82,1.82,0,0,0,.33-.11v-.54a2.14,2.14,0,0,0-.32-.1c-.1,0-.1.11-.11.19h-.06v-.48H30c0,.12.11.16.29.23l1.36.53v.07l-1.3.53c-.27.1-.36.15-.35.26Zm.59-.73.6-.24-.6-.22ZM30,37.78c0,.13,0,.21.18.21h1.2c.16,0,.17-.1.18-.21h.06v.74c0,.13,0,.62-.4.62s-.34-.27-.37-.37h0a.47.47,0,0,1-.44.45c-.21,0-.45-.17-.46-.67v-.77Zm.17.59c-.11,0-.15,0-.15.15s.22.29.37.29c.36,0,.4-.21.4-.37v-.07Zm.7,0c0,.32.1.38.35.38s.32-.06.32-.25-.06-.13-.12-.13Zm-.93-1.09v-.76H30c0,.14,0,.18.1.18a1.28,1.28,0,0,0,.33-.11v-.53a2.14,2.14,0,0,0-.32-.1c-.1,0-.1.11-.11.19h-.06v-.48H30c0,.12.11.16.29.23l1.36.53v.07l-1.3.53c-.27.1-.36.14-.35.25Zm.59-.72.6-.24-.6-.22Zm-.59-1.3v-.5l.78-.49v-.06h-.49c-.2,0-.21,0-.23.21h-.06v-.81H30c0,.17,0,.21.23.21h1.1c.21,0,.22-.07.23-.21h.06v.77c0,.16,0,.67-.44.67a.43.43,0,0,1-.42-.37l-.71.48a.09.09,0,0,0-.05.1Zm.86-1c0,.31.05.43.38.43s.36-.1.36-.29,0-.13-.11-.14Zm-.86-1.41v-.86H30c0,.18,0,.24.23.24h1.31c0-.17,0-.41-.42-.46v-.07h.5v1.42h-.5V33c.4-.05.41-.29.42-.46H30.23c-.21,0-.22.06-.23.24Zm0,12.06v-.77H30c0,.15,0,.19.1.19a1.28,1.28,0,0,0,.33-.11v-.53a1.63,1.63,0,0,0-.32-.11c-.1,0-.1.11-.11.2h-.06v-.49H30c0,.13.11.16.29.24l1.36.52v.07l-1.3.53c-.27.11-.36.15-.35.26Zm.59-.73.6-.23-.6-.23Zm1-1.26c0-.13,0-.21-.23-.21H30.24c-.45,0-.54-.27-.54-.52a.36.36,0,0,1,.32-.4.17.17,0,0,1,.18.17.17.17,0,0,1-.18.17c-.09,0-.09-.06-.16-.06s-.08,0-.08.1.14.16.22.16h1.38c.17,0,.17-.11.18-.24h.06v.83Zm-1.62-1.59v-.77H30c0,.14,0,.19.1.19a1.82,1.82,0,0,0,.33-.11v-.54a2.14,2.14,0,0,0-.32-.1c-.1,0-.1.11-.11.19h-.06v-.48H30c0,.12.11.16.29.23l1.36.53v.07l-1.3.53c-.27.1-.36.15-.35.26Zm.59-.73.6-.24-.6-.22ZM30,37.78c0,.13,0,.21.18.21h1.2c.16,0,.17-.1.18-.21h.06v.74c0,.13,0,.62-.4.62s-.34-.27-.37-.37h0a.47.47,0,0,1-.44.45c-.21,0-.45-.17-.46-.67v-.77Zm.17.59c-.11,0-.15,0-.15.15s.22.29.37.29c.36,0,.4-.21.4-.37v-.07Zm.7,0c0,.32.1.38.35.38s.32-.06.32-.25-.06-.13-.12-.13Zm-.93-1.09v-.76H30c0,.14,0,.18.1.18a1.28,1.28,0,0,0,.33-.11v-.53a2.14,2.14,0,0,0-.32-.1c-.1,0-.1.11-.11.19h-.06v-.48H30c0,.12.11.16.29.23l1.36.53v.07l-1.3.53c-.27.1-.36.14-.35.25Zm.59-.72.6-.24-.6-.22Zm-.59-1.3v-.5l.78-.49v-.06h-.49c-.2,0-.21,0-.23.21h-.06v-.81H30c0,.17,0,.21.23.21h1.1c.21,0,.22-.07.23-.21h.06v.77c0,.16,0,.67-.44.67a.43.43,0,0,1-.42-.37l-.71.48a.09.09,0,0,0-.05.1Zm.86-1c0,.31.05.43.38.43s.36-.1.36-.29,0-.13-.11-.14Zm-.86-1.41v-.86H30c0,.18,0,.24.23.24h1.31c0-.17,0-.41-.42-.46v-.07h.5v1.42h-.5V33c.4-.05.41-.29.42-.46H30.23c-.21,0-.22.06-.23.24ZM8.26,31.52a.22.22,0,0,0,.1.16l.77.45h.46c.2,0,.21-.05.23-.22h.06v.83H9.82c0-.17,0-.22-.23-.22H9.22L8.4,33a.23.23,0,0,0-.14.19H8.2v-.79h.06c0,.16,0,.19.08.19a.42.42,0,0,0,.14-.06l.58-.28-.46-.27a.85.85,0,0,0-.23-.09c-.1,0-.1.09-.11.2H8.2v-.52Zm1.62,2.91v.77H9.82c0-.14,0-.18-.1-.18a1.54,1.54,0,0,0-.33.1v.54a1.32,1.32,0,0,0,.32.1c.09,0,.1-.11.11-.19h.06v.48H9.82c0-.13-.11-.16-.29-.23l-1.37-.53v-.07l1.31-.52c.26-.11.35-.15.35-.27Zm-.59.73-.6.24.6.23Zm-.6,1.53c-.17,0-.45.19-.45.47a.23.23,0,0,0,.23.25c.14,0,.19,0,.3-.24L9,36.82a.5.5,0,0,1,.45-.27.53.53,0,0,1,.52.6,1.75,1.75,0,0,1-.08.4c0,.05.05.06.08.07v.07H9.31v-.07c.25,0,.53-.18.53-.49a.27.27,0,0,0-.28-.29c-.16,0-.22.11-.3.27l-.08.15c-.2.41-.42.41-.53.41a.47.47,0,0,1-.49-.52,1.77,1.77,0,0,1,.08-.38.07.07,0,0,0-.08-.07v-.07h.53Zm1.13,3.16c0-.15,0-.21-.2-.21H8.44c-.17.13-.18.17-.18.2H8.2v-.5l1.06-.82H8.51c-.15,0-.24,0-.25.22H8.2v-.51h.06c0,.17.08.18.2.18H9.92v.07L8.58,39.53h1c.18,0,.22,0,.25-.22h.06v.54Zm-1.62,2V40.44h.49v.06c-.35.06-.41.22-.41.55,0,.13,0,.17.12.17H9c0-.23-.06-.35-.36-.39v-.06h.84v.06c-.31,0-.39.16-.39.39h.6c.11,0,.14,0,.14-.2a.62.62,0,0,0-.44-.63v-.06l.52.09v1.39H9.82c0-.13,0-.2-.18-.2H8.44c-.17,0-.17.1-.18.2Zm1.68.47v.83H9.82c0-.13,0-.22-.18-.22H8.44c-.17,0-.17.11-.18.22H8.2v-.83h.06c0,.11,0,.22.18.22h1.2c.16,0,.16-.09.18-.22ZM9.82,45a.63.63,0,0,0,0-.14s0-.06-.19-.06H8.48c-.2,0-.21.07-.22.2H8.2v-.77c0-.19,0-.63.45-.63a.43.43,0,0,1,.38.22,1.06,1.06,0,0,1,.09.59h.47c.2,0,.2,0,.23-.21h.06V45ZM9,44.37C9,44.08,9,44,8.66,44s-.37.08-.37.27,0,.12.08.12ZM22.66,33.65a.75.75,0,0,1-.74-.41,2.94,2.94,0,0,0,.72.13,2.7,2.7,0,0,0,.71-.13A.66.66,0,0,1,22.66,33.65Zm0,2.29a.75.75,0,0,1-.74-.41,2.94,2.94,0,0,0,.72.13,2.7,2.7,0,0,0,.71-.13A.66.66,0,0,1,22.66,35.94ZM22,37.2a.75.75,0,0,1-.73-.41,2.65,2.65,0,0,0,.72.14,2.54,2.54,0,0,0,.71-.14A.67.67,0,0,1,22,37.2Zm-3.81,0a.75.75,0,0,1-.74-.41,2.65,2.65,0,0,0,.72.14,2.54,2.54,0,0,0,.71-.14A.66.66,0,0,1,18.18,37.2Zm-1.53-1.67a2.82,2.82,0,0,0,.72.13,2.69,2.69,0,0,0,.7-.13.65.65,0,0,1-.69.41A.75.75,0,0,1,16.65,35.53Zm-.13-2.29a2.82,2.82,0,0,0,.72.13,2.59,2.59,0,0,0,.7-.13.65.65,0,0,1-.69.41A.75.75,0,0,1,16.52,33.24Zm2,1a2.7,2.7,0,0,0,.71-.13.66.66,0,0,1-.69.41.75.75,0,0,1-.74-.41A2.94,2.94,0,0,0,18.56,34.27Zm1.39-.9a2.69,2.69,0,0,0,.7-.13.65.65,0,0,1-.69.41.73.73,0,0,1-.73-.41A2.82,2.82,0,0,0,20,33.37Zm1.47.9a2.69,2.69,0,0,0,.7-.13.65.65,0,0,1-.69.41.73.73,0,0,1-.73-.41A2.82,2.82,0,0,0,21.42,34.27Zm2.42-1a2.3,2.3,0,0,0-.41-2,1.84,1.84,0,0,0-1.58-.59,2.23,2.23,0,0,0-1.91-1.09,1.89,1.89,0,0,0-1.76,1.06,2.21,2.21,0,0,0-1.94,1c-.55,1.07-.19,1.57-.19,1.57a2,2,0,0,0-.61,1.72,2.81,2.81,0,0,0,1,1.4,1.68,1.68,0,0,0,1.27,1.41,3.15,3.15,0,0,0,1.77-.17v8.69s-.53,1.07-1.3,1.07c0,0,.11.51,1.3.51,0,0,.16,1,.55,1a1,1,0,0,0,.55-1s1.05-.06,1.27-.48c0,0-1.21-.34-1.21-1.1V37.58a2.61,2.61,0,0,0,.74.31c.14,0,1.8.06,2.1-1.52a2.43,2.43,0,0,0,1.08-1.8A2,2,0,0,0,23.84,33.25ZM12.5,40.35l0,.86.41.83L13.37,41l-.15-.62.35-.16.38.36-.81,3.18.12.89,0,.48.23.3.1.38-.27.29V47.3h1.33l-.7-.56v-.51l.7-.36.21-1.71L17,43.72l.69-1.39.54-.43.51-.2.13-.72.6-.57v-.76a16.6,16.6,0,0,1-1.56,1.52.58.58,0,0,1-.72,0,2.64,2.64,0,0,1,0-.4c0-.07.47-.15.47-.15l.11-.32-.07-.23a.34.34,0,0,0-.26-.06c-.06.31-.34.17-.34-.09s.38-.21.44-.23,0-.44,0-.44L17.18,39l-.5.06c-.47-.3-1.57.36-1.57.36A.86.86,0,0,1,15,40a4.67,4.67,0,0,0-.2,1.05,4.38,4.38,0,0,0,.27.78c0,.1,0,.65,0,.65a2.3,2.3,0,0,0-1.22.93.2.2,0,0,1-.13.07l.72-3-.84-1Zm4-.76v-.26l.42.06ZM16,40.87l.28-.4v.8Zm-.48.86.29-.39v.8Zm0-1.72.29-.4v.8Zm-.35.86.29-.4v.8Zm0,3.59,1,.59.09.91-.75.31v.51l.76.57h-1.4Zm4.25-3.17-.75.81-.56.23-.52,1,.54-.15.6-.4.67-.74Zm6.92-1.81-.85,1,.72,3a.17.17,0,0,1-.12-.07,2.3,2.3,0,0,0-1.22-.93s0-.55,0-.65a4.38,4.38,0,0,0,.27-.78A4.23,4.23,0,0,0,25,40a.91.91,0,0,1-.06-.53s-1.1-.66-1.58-.36L22.84,39l-.27.21s-.11.42-.05.44.44,0,.44.23-.27.4-.33.09a.37.37,0,0,0-.27.06l-.06.23.1.32s.46.08.48.15a2.64,2.64,0,0,1,0,.4.59.59,0,0,1-.73,0,17.53,17.53,0,0,1-1.55-1.52v.76l.6.57.12.72.52.2.54.43.68,1.39,2.14.44.21,1.71.7.36v.51l-.7.56h1.32V46.08l-.27-.29.11-.38.22-.3,0-.48.13-.89-.81-3.18.37-.36.35.16-.14.62L27.08,42l.42-.83,0-.86Zm-3.23-.09.41-.06,0,.26Zm.61,1.88v-.8l.3.4Zm.48.87v-.8l.29.39Zm0-1.73v-.8l.29.4Zm.36.86v-.8l.29.4Zm.25,3.19-1,.59-.08.91.74.31v.51l-.77.57h1.42Zm-4.25-3.17.74.81.56.23.52,1-.54-.15-.6-.4-.66-.74ZM31,49.87l-.73-.73-.64.65L29,49.14l-.73.73.65.66-.65.66.73.73.64-.66.64.66.73-.73-.65-.66Zm-19.59,0-.72-.73-.65.65-.64-.65-.73.73.65.66-.65.66.73.73.64-.66.65.66.72-.73-.65-.66ZM31.76,25.8,31,25.06l-.65.65-.64-.65L29,25.8l.65.65-.65.66.73.74.64-.66.65.66.72-.74-.64-.66ZM11,25.8l-.72-.74-.65.65-.65-.65-.72.74.65.65-.65.66.72.74.65-.66.65.66.72-.74-.65-.66Zm27.18-12-.72-.22,0-.09c.15,0,.19,0,.22-.09a2.64,2.64,0,0,0,0-.5l-.5-.16a4.32,4.32,0,0,0-.23.43c0,.14.07.19.14.21l0,.09-.46-.13,0-.1c.12,0,.19-.1.34-.34l1-1.81.06,0,0,2c0,.41,0,.54.1.57Zm-.44-1.05,0-.93-.46.8Zm-1.16.57-.46-.13-.18-1.3-.06,0-.18.73c-.07.3,0,.33.12.4l0,.09L35,12.9l0-.09c.16,0,.21,0,.28-.29l.41-1.65c.08-.32,0-.35-.11-.4l0-.1.73.21a.63.63,0,0,1,.47.85c-.11.45-.37.5-.51.53l.19,1.19c0,.08,0,.09.08.1Zm-.67-1.57c.3.08.43,0,.56-.45s0-.57-.14-.62-.14,0-.18.12Zm-.94,1.16-.73-.19,0-.1c.14,0,.19,0,.21-.09a3.07,3.07,0,0,0,0-.53l-.51-.13a2.52,2.52,0,0,0-.21.46c0,.14.07.18.15.21l0,.09-.46-.12,0-.09c.13,0,.19-.12.32-.38l1-1.91h.06l.06,2.09c0,.43,0,.56.14.58Zm-.49-1.06,0-1-.42.85ZM33.92,10c-.15,0-.23,0-.26.3l-.14,1.51c-.06.63-.35.74-.61.72a.44.44,0,0,1-.38-.47c0-.19.14-.26.21-.26a.24.24,0,0,1,.15.28c0,.14-.08.12-.09.22a.11.11,0,0,0,.1.12c.16,0,.18-.19.19-.29l.18-1.93c0-.24-.09-.25-.23-.27V9.88l.87.07Zm-1.47,2.31-.74-.13v-.09c.15,0,.19,0,.21-.12a2.37,2.37,0,0,0,0-.52l-.51-.09a3.44,3.44,0,0,0-.18.47c0,.14.08.17.16.19v.1l-.47-.08V12c.13,0,.18-.13.3-.4l.84-2h.06l.2,2.08c0,.43.06.56.17.57Zm-.56-1-.08-1-.36.88Zm-1.07.73-1.34-.18V11.8c.14,0,.21,0,.24-.25l.21-1.88c0-.25-.06-.28-.16-.3v-.1l.81.12v.09c-.17,0-.24,0-.28.32l-.21,1.83c0,.19,0,.23.18.25.35,0,.52-.26.67-.68H31Zm-1.42-.16-.76-.11v-.1c.15,0,.19,0,.21-.12a2.5,2.5,0,0,0,0-.53L28.29,11a3.17,3.17,0,0,0-.17.48c0,.14.09.17.17.19l0,.1-.47-.07v-.1c.13,0,.18-.14.29-.41l.82-2H29l.24,2.1c.05.43.07.57.18.58Zm-.51-1-.11-1-.35.89Zm-2.48.52c.14,0,.2-.09.21-.24l.16-1.89c0-.24-.08-.25-.17-.28V8.92l.71.06c.65.07.81.76.76,1.35s-.37,1.28-1,1.26l-.73-.07Zm.59-.2c0,.15,0,.22.11.23.26,0,.49-.2.57-1.12,0-.35.05-1.18-.35-1.21-.15,0-.16.08-.16.16Zm-.75.27-.76-.06v-.09c.14,0,.19,0,.2-.14a3.27,3.27,0,0,0-.07-.51l-.53,0c-.08.27-.13.43-.14.49s.1.16.18.18v.09l-.48,0v-.1c.13,0,.17-.14.26-.42l.68-2h.06l.37,2c.07.42.11.55.22.55Zm-.64-1-.17-.95-.29.91ZM25,8.85c-.13,0-.18.06-.19.31l-.05,1.22a1.74,1.74,0,0,1-.16.73.55.55,0,0,1-.47.26.58.58,0,0,1-.46-.26,1,1,0,0,1-.14-.7l0-1.27c0-.32,0-.33-.18-.36v-.1l.8,0v.09c-.15,0-.23,0-.24.34l-.05,1.28c0,.21,0,.74.31.75s.44-.56.45-.81l0-1.16c0-.23,0-.36-.21-.38v-.1l.52,0Zm-1.62,1.44c-.14,0-.2,0-.21.34l0,.48a1,1,0,0,1-.64.2c-.59,0-.82-.71-.79-1.37s.38-1.34.89-1.32c.21,0,.38.21.44.21s.09-.07.11-.17h.07l0,.89h-.06c-.07-.33-.24-.79-.51-.8s-.46.55-.49,1.2c0,.27,0,1.22.4,1.24.21,0,.25-.1.26-.27v-.39c0-.25-.06-.26-.22-.28v-.09l.8,0ZM19.78,8.66h1.35v.79h-.06c0-.56-.21-.66-.53-.67-.13,0-.17,0-.17.19v.9c.22,0,.34-.1.38-.57h.06v1.31h-.06c0-.49-.14-.6-.37-.61V11c0,.17,0,.22.19.23s.47-.1.62-.69h.06l-.1.81-1.36,0v-.09c.13,0,.21,0,.21-.28L20,9c0-.25-.1-.27-.2-.28Zm-1.64,2.57c.14,0,.19-.12.19-.26l0-1.93c0-.23-.11-.24-.2-.25v-.1h.72c.65,0,.87.67.88,1.27s-.24,1.32-.83,1.36h-.74Zm.57-.28c0,.16,0,.23.13.23.27,0,.47-.26.46-1.19,0-.35-.07-1.18-.47-1.17-.15,0-.15.09-.15.18Zm-2.62.37c.15,0,.19-.12.18-.26l-.08-1.9c0-.23-.11-.24-.2-.24v-.1l.72,0c.65,0,.89.63.92,1.22s-.2,1.32-.79,1.38l-.73,0Zm.56-.29c0,.15,0,.22.15.21s.45-.26.41-1.18c0-.35-.1-1.17-.5-1.14-.15,0-.15.1-.14.18Zm-.61.38-.75.06v-.1c.14,0,.19,0,.18-.15a2.57,2.57,0,0,0-.15-.5l-.52,0a2.55,2.55,0,0,0-.07.49c0,.15.12.15.2.15v.1l-.47,0v-.1c.13,0,.15-.17.2-.46L15,8.87h.07l.65,1.94c.14.4.18.52.29.51Zm-.77-.83L15,9.67l-.16.94Zm-2.3,1c.14,0,.18-.12.18-.27L13,9.43c0-.24-.12-.24-.21-.24v-.1L13.54,9c.65,0,.9.62.94,1.21s-.19,1.32-.77,1.4l-.74,0Zm.55-.3c0,.15,0,.22.15.21.26,0,.45-.27.4-1.2,0-.35-.11-1.17-.52-1.14-.15,0-.14.11-.13.19Zm-.61.39-.81.07v-.09c.12,0,.21-.06.2-.3L12.15,9.5c0-.26-.13-.26-.23-.26v-.1l.81-.07v.1c-.11,0-.22,0-.2.29l.13,1.88c0,.25.12.25.25.26ZM11.77,10c-.08-.25-.28-.66-.55-.62s-.23.15-.2.39.09.27.3.4l.37.22A.87.87,0,0,1,12,11c0,.32,0,.79-.47.85-.22,0-.34-.08-.41-.07s-.05.08-.05.14H11L10.91,11H11c.1.36.29.76.58.72s.24-.41.23-.46c0-.25-.15-.31-.31-.41l-.17-.09A.93.93,0,0,1,10.8,10c0-.22,0-.73.42-.79.18,0,.31.08.37.07s.06-.07.07-.14h.06l.11.8Zm-.84,2-.47.07-.63-1.13H9.77l.09.75c0,.31.09.31.25.32v.1l-.78.11v-.1c.15-.05.2-.07.16-.37L9.28,10c0-.33-.12-.33-.25-.32l0-.1.75-.1a.59.59,0,0,1,.74.58.62.62,0,0,1-.28.7l.6,1a.11.11,0,0,0,.1.06ZM9.75,10.78c.31,0,.41-.15.35-.65s-.16-.54-.35-.51-.12.06-.12.18ZM7.44,9.92l1.33-.26.14.74-.06,0c-.15-.52-.33-.58-.64-.52-.13,0-.16,0-.13.21l.15.86c.23,0,.33-.16.28-.63h.05l.23,1.26H8.73c-.11-.46-.25-.55-.47-.5l.16.9c0,.16.08.2.23.17s.44-.19.49-.78l.06,0,.05.8-1.34.26,0-.09c.13-.05.19-.07.15-.3l-.33-1.8c0-.25-.14-.23-.25-.22Zm0,.1c-.12.05-.14.13-.15.34l-.06,2.22H7.15l-1.05-2c-.11-.2-.14-.21-.25-.21v-.09l.76-.17,0,.09c-.14.05-.2.06-.16.19a1.82,1.82,0,0,0,.13.3l.55,1.06,0-1.24a1.09,1.09,0,0,0,0-.26c0-.14-.1-.14-.23-.12l0-.09.49-.11ZM6.35,12.75,5.56,13l0-.09c.11,0,.2-.09.14-.31l-.42-1.77c-.06-.25-.16-.23-.27-.21l0-.09.79-.21,0,.09c-.1,0-.21.07-.15.32l.42,1.77c.06.23.15.22.28.2ZM4,13.22c.13-.07.18-.11.12-.34L3.63,11.2C3.44,11,3.41,11,3.37,11l0-.09.48-.12L5,12.08H5L4.73,11c-.05-.21-.11-.32-.3-.29l0-.09.49-.13,0,.09c-.16.07-.15.16-.11.33L5.36,13H5.3L3.79,11.36h0l.38,1.42c.06.26.13.31.3.3l0,.09L4,13.3ZM3.28,11c-.12.07-.15.13-.08.36l.35,1.11a1.66,1.66,0,0,1,.09.72.57.57,0,0,1-.35.4.55.55,0,0,1-.52-.08c-.15-.09-.24-.2-.36-.58L2,11.8c-.09-.3-.15-.28-.29-.26l0-.09.75-.25,0,.09c-.14.06-.2.08-.11.39l.37,1.17c.07.2.22.68.54.57s.23-.66.16-.88l-.34-1.07c-.07-.21-.14-.32-.33-.28l0-.08L3.25,11ZM20.2,14.35A2.38,2.38,0,0,1,22.36,16a3.37,3.37,0,0,0-2.16-.87Zm-.49,0v.73a3.34,3.34,0,0,0-2.15.87A2.37,2.37,0,0,1,19.71,14.35Zm-2.46,2.48A3.7,3.7,0,0,1,20,16h0a3.7,3.7,0,0,1,2.7.82v1.23a3.93,3.93,0,0,1-2.71.78,3.91,3.91,0,0,1-2.7-.78Zm.44,2.41c-.05-.08.06-.14.06-.14a5.3,5.3,0,0,0,2,.73v.39a1.71,1.71,0,0,1-.67-.08l-.21.39s.16.28,1.06.28h0c.91,0,1.06-.28,1.06-.28l-.21-.39a1.71,1.71,0,0,1-.67.08v-.39a5.35,5.35,0,0,0,2-.73s.1.06.06.14a10,10,0,0,0-.76,1V21a2,2,0,0,1-3,0v-.8A8.84,8.84,0,0,0,17.69,19.24ZM28.06,45.89a3.49,3.49,0,0,1-.59,2.39,2.58,2.58,0,0,1-2.14.73H22.44A3.61,3.61,0,0,0,20,50.15,3.32,3.32,0,0,0,17.52,49h-3a2.48,2.48,0,0,1-1.91-.7,3,3,0,0,1-.62-2V29H28.06Zm.72-22h4.09V49.48a4.78,4.78,0,0,1-1,3.08,3.46,3.46,0,0,1-2.71,1.06H23.64A5.67,5.67,0,0,0,20,55.24a5.68,5.68,0,0,0-3.7-1.62H10.73A3.44,3.44,0,0,1,8,52.56a4.78,4.78,0,0,1-1-3.08V23.84h4.09a3.64,3.64,0,0,0,2.58,2.38s1,.15,1.49.2a2.65,2.65,0,0,1,1.53.75c.33.28,1,.9,1.1,1a1.39,1.39,0,0,0,.21.17H11.32V46.52a3.34,3.34,0,0,0,.86,2.18,3.25,3.25,0,0,0,2,.94H17.7A4,4,0,0,1,20,50.88a4,4,0,0,1,2.42-1.24H25.7a3,3,0,0,0,2.23-1,3.46,3.46,0,0,0,.76-2.26v-18H21.87a1.39,1.39,0,0,0,.21-.17c.12-.1.77-.72,1.1-1a2.65,2.65,0,0,1,1.53-.75c.53-.05,1.49-.2,1.49-.2A3.64,3.64,0,0,0,28.78,23.84Zm.6-.52-.21-.1.34-.11-.73-.61s.77,0,.71,0-.87-.89-.87-.89.93.11.87,0-.85-.86-.79-.82.77.13.75.06-.75-.78-.75-.78.79.17.75.09-.83-.89-.75-.85.72.19.72.19c-.12-.17-.47-.76-.47-.76l6.77,3.42-.47.08.74.72-.78,0,.76.7-.74,0,.72.74s-.78-.07-.74,0,.82.8.74.78-.81,0-.74.05.81.73.7.73a5.94,5.94,0,0,0-.74,0,6.87,6.87,0,0,1,.55.69l-2.35-1.23v-2.1Zm-17.66,0A2.56,2.56,0,0,0,12.14,22V17.81a1.58,1.58,0,0,0-1.26-1.63c-.44-.17-5.42-1.86-5.42-1.86A66.62,66.62,0,0,1,20,12.92h0a66.47,66.47,0,0,1,14.47,1.4S29.46,16,29,16.18a1.59,1.59,0,0,0-1.27,1.63V22a2.75,2.75,0,0,0,.43,1.29h0L22,20.91s-.17-.46.08-.65a3.66,3.66,0,0,0,1-1.68,1,1,0,0,0,.67-.92.91.91,0,0,0-.55-.91s-.6-3-3.28-3h0c-2.67,0-3.28,3-3.28,3a.91.91,0,0,0-.55.91,1,1,0,0,0,.67.92,3.75,3.75,0,0,0,1,1.68c.25.19.08.65.08.65l-6.15,2.41Zm-5.18,2.1L4.19,26.65A7.11,7.11,0,0,1,4.75,26,6,6,0,0,0,4,26c-.1,0,.64-.69.71-.73S4,25.2,4,25.22s.71-.71.75-.78-.75,0-.75,0l.73-.74-.75,0,.77-.7-.79,0,.75-.72-.48-.08L11,18.72s-.35.59-.47.76c0,0,.64-.15.72-.19s-.7.76-.74.85.74-.09.74-.09-.72.72-.74.78.68,0,.74-.06-.72.71-.78.82.87,0,.87,0-.81.87-.87.89.7,0,.7,0l-.73.61.33.11-.2.1h-4ZM18.77,7.3C.54,7.48,0,11.89,0,11.89v4.8c0,1.6.55,1.57,1.16,1.88.31.16,5.12,1.72,5.12,1.72v.21l-2.07,1a1.85,1.85,0,0,0-1.16,1.64V28a1.16,1.16,0,0,0,.62,1.24l1.41,1.13-4.59,3,3.16,1V38l2.88-1.9V49.51a5.23,5.23,0,0,0,1.13,3.4,3.92,3.92,0,0,0,3.07,1.22h5.53c1.73,0,3.7,1.71,3.7,1.71a6.71,6.71,0,0,1,3.68-1.71h5.53a3.93,3.93,0,0,0,3.08-1.22,5.28,5.28,0,0,0,1.13-3.4V36.07L36.24,38V34.49l3.16-1-4.59-3,1.41-1.13A1.15,1.15,0,0,0,36.84,28V23.15a1.83,1.83,0,0,0-1.16-1.64l-2.07-1v-.21s4.81-1.56,5.13-1.72c.6-.31,1.15-.28,1.15-1.88v-4.8S39.35,7.48,21.13,7.3v-1h-.44V4.68H22.2v.38h1.5V2.63H22.19V3h-1.5V1.46h.43V0H18.77V1.46h.44V3h-1.5V2.63H16.2V5.06h1.5V4.68h1.51V6.29h-.44ZM38.87,12c-.12,0-.47.16-.35.22s.42.48.35.46-.45.11-.35.17.48.53.4.51-.5.06-.42.14.48.55.39.55-.62,0-.45.11.54.72.45.7-.66-.11-.47.06a1.89,1.89,0,0,1,.31.67C34.06,12.06,20.18,12.28,20,12.29h0c-.22,0-14.13-.23-18.8,3.33A1.89,1.89,0,0,1,1.47,15c.19-.17-.39-.09-.47-.06s.29-.6.45-.7-.37-.11-.45-.11.31-.46.39-.55-.33-.16-.42-.14.3-.45.4-.51-.29-.19-.35-.17.22-.4.35-.46S1.14,12,1,12s.14-.35.25-.39-.3-.26-.33-.3S3.67,7.9,20,7.9h0c16.26,0,19,3.44,19,3.44s-.44.25-.33.3S39,12.06,38.87,12ZM23.38,4.68h-.8V4.39H20.41V6.53h.4v.76h-1.7V6.53h.39V4.39H17.34v.29h-.8V3h.86v.34h2.11V1.18h-.4V.38h1.7v.8H20.4V3.37h2.11V3h.87Zm3,20.81a9.07,9.07,0,0,1-2.26.5,3,3,0,0,0-1.8,1.1A3.3,3.3,0,0,1,20,28.31a3.43,3.43,0,0,1-2.4-1.22A3.07,3.07,0,0,0,15.75,26a8.93,8.93,0,0,1-2.25-.5,3.66,3.66,0,0,1-1.69-1.57l5.39-2.14L15.26,23.9l3.43-2.15-1.06,3.57L19.58,22,20,26.57h0L20.34,22l1.94,3.29-1.06-3.57,3.43,2.15-1.94-2.12,5.39,2.14A3.69,3.69,0,0,1,26.42,25.49Z"/><polygon class="cls-1" points="170.15 42.07 167.55 42.07 50.43 42.07 47.83 42.07 47.83 42.45 108.99 42.45 170.15 42.45 170.15 42.07"/><path class="cls-1" d="M61.47,50h-1.4l-1.78-2.46h-.55v1.53c0,.33,0,.54.11.62a.54.54,0,0,0,.44.17h.2V50H56.24v-.14h.2a.56.56,0,0,0,.48-.22,1.29,1.29,0,0,0,.08-.57V45.68a1.08,1.08,0,0,0-.11-.62.58.58,0,0,0-.45-.17h-.2v-.15h1.92a4.52,4.52,0,0,1,1.23.13,1.41,1.41,0,0,1,.68.45,1.16,1.16,0,0,1,.27.78,1.23,1.23,0,0,1-.31.84,1.86,1.86,0,0,1-1,.5L60.13,49a2.75,2.75,0,0,0,.64.69,1.8,1.8,0,0,0,.7.22Zm-3.73-2.7H58A1.76,1.76,0,0,0,59.09,47a1.07,1.07,0,0,0,.38-.83,1.05,1.05,0,0,0-.31-.8,1.08,1.08,0,0,0-.81-.31,3.24,3.24,0,0,0-.61.07Z"/><path class="cls-1" d="M63,47.79A1.79,1.79,0,0,0,63.41,49a1.17,1.17,0,0,0,.91.45,1,1,0,0,0,.61-.2,1.39,1.39,0,0,0,.43-.65l.12.08a1.81,1.81,0,0,1-.47,1,1.27,1.27,0,0,1-1,.44,1.46,1.46,0,0,1-1.1-.5,1.92,1.92,0,0,1-.45-1.34,2,2,0,0,1,.46-1.42,1.55,1.55,0,0,1,1.18-.51,1.33,1.33,0,0,1,1,.39,1.48,1.48,0,0,1,.38,1.06Zm0-.23h1.64a1.45,1.45,0,0,0-.08-.48.8.8,0,0,0-.29-.34.75.75,0,0,0-.4-.12.79.79,0,0,0-.58.25A1,1,0,0,0,63,47.56Z"/><path class="cls-1" d="M69.24,49.6a1.85,1.85,0,0,1-.5.39,1.25,1.25,0,0,1-.54.12,1.35,1.35,0,0,1-1-.49,1.84,1.84,0,0,1-.43-1.25,2.28,2.28,0,0,1,.48-1.4,1.49,1.49,0,0,1,1.24-.63,1,1,0,0,1,.77.3V46a5.08,5.08,0,0,0,0-.74.3.3,0,0,0-.09-.19A.2.2,0,0,0,69,45a.83.83,0,0,0-.27.06l0-.14,1.06-.43h.17v4.1a5.24,5.24,0,0,0,0,.76.37.37,0,0,0,.09.2.3.3,0,0,0,.15.05.71.71,0,0,0,.28-.07l0,.14-1,.44h-.18Zm0-.27V47.5A1.12,1.12,0,0,0,69.1,47a.75.75,0,0,0-.3-.33.82.82,0,0,0-.38-.11.78.78,0,0,0-.61.31,1.76,1.76,0,0,0-.35,1.17,1.81,1.81,0,0,0,.34,1.2,1,1,0,0,0,.76.42A1,1,0,0,0,69.24,49.33Z"/><path class="cls-1" d="M76.23,44.89v-.15h1.86v.15h-.2a.52.52,0,0,0-.48.26,1.24,1.24,0,0,0-.08.56v2.13a3.6,3.6,0,0,1-.16,1.22,1.55,1.55,0,0,1-.61.75,2.2,2.2,0,0,1-1.25.31,2.35,2.35,0,0,1-1.31-.3,1.52,1.52,0,0,1-.63-.8,4.57,4.57,0,0,1-.12-1.29v-2a1,1,0,0,0-.14-.64.55.55,0,0,0-.43-.15h-.2v-.15h2.27v.15h-.2a.52.52,0,0,0-.46.2,1.12,1.12,0,0,0-.1.59V48a4.83,4.83,0,0,0,.06.7,1.33,1.33,0,0,0,.2.61,1.17,1.17,0,0,0,.42.37,1.59,1.59,0,0,0,.68.14,1.81,1.81,0,0,0,.93-.23,1.16,1.16,0,0,0,.55-.57A3.31,3.31,0,0,0,77,47.8V45.68a1.11,1.11,0,0,0-.11-.62.58.58,0,0,0-.45-.17Z"/><path class="cls-1" d="M80.24,47.1a1.66,1.66,0,0,1,1.19-.75.84.84,0,0,1,.5.14,1,1,0,0,1,.33.48,2.12,2.12,0,0,1,.08.71V49.2a1.14,1.14,0,0,0,.06.45.31.31,0,0,0,.14.16.88.88,0,0,0,.35,0V50H81.13v-.14h.07a.6.6,0,0,0,.35-.08.38.38,0,0,0,.14-.22,2.67,2.67,0,0,0,0-.36V47.74a1.54,1.54,0,0,0-.12-.7.46.46,0,0,0-.43-.22,1.26,1.26,0,0,0-.91.51V49.2a1.25,1.25,0,0,0,0,.44.42.42,0,0,0,.15.17,1,1,0,0,0,.38,0V50H79.06v-.14h.08a.41.41,0,0,0,.36-.14,1,1,0,0,0,.1-.52V47.88a5.5,5.5,0,0,0,0-.78.34.34,0,0,0-.09-.19.25.25,0,0,0-.16,0,.69.69,0,0,0-.26.06L79,46.78l1.07-.43h.17Z"/><path class="cls-1" d="M85.18,46.35V49.2a1.41,1.41,0,0,0,0,.44.36.36,0,0,0,.15.17.86.86,0,0,0,.34,0V50H84v-.14a.88.88,0,0,0,.35,0,.3.3,0,0,0,.14-.17,1.13,1.13,0,0,0,0-.44V47.83a5.56,5.56,0,0,0,0-.75.3.3,0,0,0-.09-.17.25.25,0,0,0-.16,0,.73.73,0,0,0-.26.06l0-.14L85,46.35Zm-.33-1.86a.41.41,0,0,1,.28.11.4.4,0,0,1-.28.68.36.36,0,0,1-.27-.12.38.38,0,0,1-.12-.28.38.38,0,0,1,.39-.39Z"/><path class="cls-1" d="M86.76,46.45h1.67v.14h-.11a.32.32,0,0,0-.23.08.22.22,0,0,0-.08.19.93.93,0,0,0,.08.33l.83,2,.82-2a.91.91,0,0,0,.09-.33.16.16,0,0,0,0-.09.23.23,0,0,0-.11-.08l-.26,0v-.14h1.16v.14a.52.52,0,0,0-.28.08,1.14,1.14,0,0,0-.25.39l-1.26,3h-.16l-1.26-3a1,1,0,0,0-.17-.3.58.58,0,0,0-.19-.15,1.11,1.11,0,0,0-.26-.07Z"/><path class="cls-1" d="M92.29,47.79A1.79,1.79,0,0,0,92.67,49a1.17,1.17,0,0,0,.91.45,1,1,0,0,0,.61-.2,1.39,1.39,0,0,0,.43-.65l.12.08a1.89,1.89,0,0,1-.47,1,1.28,1.28,0,0,1-1,.44,1.44,1.44,0,0,1-1.1-.5,1.92,1.92,0,0,1-.45-1.34,2,2,0,0,1,.46-1.42,1.52,1.52,0,0,1,1.17-.51,1.34,1.34,0,0,1,1,.39,1.48,1.48,0,0,1,.38,1.06Zm0-.23h1.64a1.45,1.45,0,0,0-.08-.48.8.8,0,0,0-.29-.34.75.75,0,0,0-.4-.12.79.79,0,0,0-.58.25A1,1,0,0,0,92.29,47.56Z"/><path class="cls-1" d="M97,46.35v.79c.3-.53.6-.79.92-.79a.51.51,0,0,1,.35.12.43.43,0,0,1,.14.31.37.37,0,0,1-.1.25.33.33,0,0,1-.24.1.53.53,0,0,1-.31-.13.45.45,0,0,0-.25-.13.22.22,0,0,0-.15.08,2.07,2.07,0,0,0-.36.52v1.7a1,1,0,0,0,.08.45.4.4,0,0,0,.17.17.76.76,0,0,0,.37.07V50H95.83v-.14a.84.84,0,0,0,.41-.08.35.35,0,0,0,.13-.2,1.54,1.54,0,0,0,0-.38V47.83c0-.42,0-.66,0-.74a.26.26,0,0,0-.1-.17.23.23,0,0,0-.16-.06.83.83,0,0,0-.28.06l0-.14,1.07-.43Z"/><path class="cls-1" d="M101.71,46.35v1.2h-.13a1.53,1.53,0,0,0-.37-.77.85.85,0,0,0-.59-.21.63.63,0,0,0-.44.15A.4.4,0,0,0,100,47a.61.61,0,0,0,.12.37,1.44,1.44,0,0,0,.49.33l.56.28a1.14,1.14,0,0,1,.79,1,1,1,0,0,1-.37.78,1.23,1.23,0,0,1-.81.3,2.77,2.77,0,0,1-.75-.12,1,1,0,0,0-.21,0,.16.16,0,0,0-.14.1h-.13V48.79h.13a1.37,1.37,0,0,0,.42.81,1,1,0,0,0,.68.28.61.61,0,0,0,.44-.16.5.5,0,0,0,.17-.38.61.61,0,0,0-.19-.44,3.29,3.29,0,0,0-.75-.47,2.14,2.14,0,0,1-.74-.5.91.91,0,0,1-.17-.56,1,1,0,0,1,.3-.73,1,1,0,0,1,.78-.29,1.76,1.76,0,0,1,.5.08,1.22,1.22,0,0,0,.27.06l.09,0a.31.31,0,0,0,.08-.12Z"/><path class="cls-1" d="M104.51,46.35V49.2a1.32,1.32,0,0,0,0,.44.31.31,0,0,0,.15.17.83.83,0,0,0,.34,0V50h-1.72v-.14a.88.88,0,0,0,.35,0,.35.35,0,0,0,.14-.17,1.37,1.37,0,0,0,.05-.44V47.83a5.56,5.56,0,0,0,0-.75.3.3,0,0,0-.09-.17.25.25,0,0,0-.16,0,.73.73,0,0,0-.26.06l-.06-.14,1.07-.43Zm-.32-1.86a.41.41,0,0,1,.28.11.41.41,0,0,1,0,.56.39.39,0,0,1-.56,0,.41.41,0,0,1-.11-.28.37.37,0,0,1,.11-.28A.41.41,0,0,1,104.19,44.49Z"/><path class="cls-1" d="M107.31,45.28v1.17h.83v.27h-.83V49a.76.76,0,0,0,.1.47.3.3,0,0,0,.25.12.46.46,0,0,0,.25-.08.49.49,0,0,0,.18-.24h.16a1.26,1.26,0,0,1-.39.58.85.85,0,0,1-.51.19A.78.78,0,0,1,107,50a.62.62,0,0,1-.25-.28,1.65,1.65,0,0,1-.08-.57V46.72h-.56v-.13a1.3,1.3,0,0,0,.43-.29,2.13,2.13,0,0,0,.4-.48,5.17,5.17,0,0,0,.25-.54Z"/><path class="cls-1" d="M111.28,49.49a8.44,8.44,0,0,1-.69.49,1.13,1.13,0,0,1-.45.09.79.79,0,0,1-.6-.25.92.92,0,0,1-.24-.66.91.91,0,0,1,.11-.45,1.55,1.55,0,0,1,.56-.5,8.94,8.94,0,0,1,1.31-.56v-.14a1.16,1.16,0,0,0-.17-.73.63.63,0,0,0-.49-.2.53.53,0,0,0-.39.13.4.4,0,0,0-.15.3v.23a.41.41,0,0,1-.09.28.32.32,0,0,1-.24.09.31.31,0,0,1-.24-.1.4.4,0,0,1-.09-.27.8.8,0,0,1,.35-.62,1.47,1.47,0,0,1,1-.27,1.75,1.75,0,0,1,.78.15.73.73,0,0,1,.33.38,2,2,0,0,1,.07.68v1.21c0,.33,0,.54,0,.62s0,.13.07.15a.13.13,0,0,0,.1,0,.2.2,0,0,0,.11,0,1.82,1.82,0,0,0,.31-.28v.22c-.29.39-.56.58-.83.58a.42.42,0,0,1-.3-.13A.74.74,0,0,1,111.28,49.49Zm0-.25V47.88c-.39.16-.65.27-.76.33a1.39,1.39,0,0,0-.44.36A.67.67,0,0,0,110,49a.63.63,0,0,0,.17.46.51.51,0,0,0,.38.18A1.47,1.47,0,0,0,111.28,49.24Z"/><path class="cls-1" d="M114.61,46.35v.79c.29-.53.6-.79.91-.79a.51.51,0,0,1,.35.12.39.39,0,0,1,.14.31.33.33,0,0,1-.1.25.3.3,0,0,1-.24.1.48.48,0,0,1-.3-.13.49.49,0,0,0-.25-.13A.19.19,0,0,0,115,47a1.66,1.66,0,0,0-.36.52v1.7a1.06,1.06,0,0,0,.07.45.37.37,0,0,0,.18.17.74.74,0,0,0,.37.07V50h-1.82v-.14a.83.83,0,0,0,.4-.08.37.37,0,0,0,.14-.2,2.37,2.37,0,0,0,0-.38V47.83a4.79,4.79,0,0,0,0-.74.26.26,0,0,0-.26-.23.74.74,0,0,0-.27.06l0-.14,1.07-.43Z"/><path class="cls-1" d="M118.22,46.35V49.2a1.1,1.1,0,0,0,0,.44.34.34,0,0,0,.14.17.88.88,0,0,0,.35,0V50H117v-.14a.88.88,0,0,0,.35,0,.3.3,0,0,0,.14-.17,1.13,1.13,0,0,0,0-.44V47.83a5.56,5.56,0,0,0,0-.75.3.3,0,0,0-.09-.17.23.23,0,0,0-.15,0,.78.78,0,0,0-.27.06l0-.14,1.07-.43Zm-.32-1.86a.39.39,0,0,1,.27.11.39.39,0,0,1,0,.56.36.36,0,0,1-.27.12.36.36,0,0,1-.28-.12.38.38,0,0,1-.12-.28.41.41,0,0,1,.11-.28A.44.44,0,0,1,117.9,44.49Z"/><path class="cls-1" d="M122,49.49a7.34,7.34,0,0,1-.68.49,1.13,1.13,0,0,1-.45.09.79.79,0,0,1-.61-.25.92.92,0,0,1-.24-.66.82.82,0,0,1,.12-.45,1.6,1.6,0,0,1,.55-.5,9.47,9.47,0,0,1,1.31-.56v-.14a1.1,1.1,0,0,0-.17-.73.6.6,0,0,0-.49-.2.52.52,0,0,0-.38.13.4.4,0,0,0-.15.3v.23a.37.37,0,0,1-.09.28.32.32,0,0,1-.23.09.3.3,0,0,1-.24-.1.4.4,0,0,1-.09-.27.79.79,0,0,1,.34-.62,1.52,1.52,0,0,1,1-.27,1.73,1.73,0,0,1,.77.15.71.71,0,0,1,.34.38,2,2,0,0,1,.07.68v1.21c0,.33,0,.54,0,.62s0,.13.07.15a.12.12,0,0,0,.1,0,.23.23,0,0,0,.11,0,2.33,2.33,0,0,0,.31-.28v.22c-.29.39-.57.58-.83.58a.38.38,0,0,1-.3-.13A.67.67,0,0,1,122,49.49Zm0-.25V47.88q-.58.24-.75.33a1.2,1.2,0,0,0-.44.36.73.73,0,0,0,0,.87.51.51,0,0,0,.39.18A1.45,1.45,0,0,0,122,49.24Z"/><path class="cls-1" d="M128,49.6a1.85,1.85,0,0,1-.5.39,1.25,1.25,0,0,1-.54.12,1.33,1.33,0,0,1-1-.49,1.8,1.8,0,0,1-.44-1.25A2.28,2.28,0,0,1,126,47a1.5,1.5,0,0,1,1.24-.63,1,1,0,0,1,.77.3V46a5.08,5.08,0,0,0,0-.74.23.23,0,0,0-.09-.19.2.2,0,0,0-.15,0,.83.83,0,0,0-.27.06l0-.14,1.06-.43h.17v4.1a5.24,5.24,0,0,0,0,.76.32.32,0,0,0,.1.2.24.24,0,0,0,.14.05.71.71,0,0,0,.28-.07l0,.14-1.06.44H128Zm0-.27V47.5a1.12,1.12,0,0,0-.14-.48.75.75,0,0,0-.3-.33.82.82,0,0,0-.38-.11.78.78,0,0,0-.61.31,1.76,1.76,0,0,0-.35,1.17,1.81,1.81,0,0,0,.34,1.2,1,1,0,0,0,.76.42A1,1,0,0,0,128,49.33Z"/><path class="cls-1" d="M130.83,47.79a1.84,1.84,0,0,0,.39,1.24,1.17,1.17,0,0,0,.91.45,1,1,0,0,0,.6-.2,1.33,1.33,0,0,0,.44-.65l.12.08a1.9,1.9,0,0,1-.48,1,1.26,1.26,0,0,1-1,.44,1.43,1.43,0,0,1-1.09-.5,1.93,1.93,0,0,1-.46-1.34,2,2,0,0,1,.47-1.42,1.52,1.52,0,0,1,1.17-.51,1.3,1.3,0,0,1,1,.39,1.44,1.44,0,0,1,.39,1.06Zm0-.23h1.65a1.78,1.78,0,0,0-.08-.48.8.8,0,0,0-.29-.34.77.77,0,0,0-.4-.12.79.79,0,0,0-.58.25A1.05,1.05,0,0,0,130.83,47.56Z"/><path class="cls-1" d="M136.29,44.89v-.15h2.25v.15h-.19a.54.54,0,0,0-.47.19,1.21,1.21,0,0,0-.09.6v2.56a3.08,3.08,0,0,1-.13,1,1.59,1.59,0,0,1-.45.65,1.15,1.15,0,0,1-.77.27.85.85,0,0,1-.57-.18.54.54,0,0,1-.21-.41.37.37,0,0,1,.1-.29.4.4,0,0,1,.29-.12.38.38,0,0,1,.23.08,1.35,1.35,0,0,1,.25.44c.06.14.13.2.22.2a.26.26,0,0,0,.2-.12.86.86,0,0,0,.09-.46V45.68a1.85,1.85,0,0,0,0-.53.33.33,0,0,0-.16-.17.73.73,0,0,0-.35-.09Z"/><path class="cls-1" d="M141.63,49.49a8.44,8.44,0,0,1-.69.49,1.13,1.13,0,0,1-.45.09.79.79,0,0,1-.6-.25.92.92,0,0,1-.24-.66.82.82,0,0,1,.12-.45,1.51,1.51,0,0,1,.55-.5,8.94,8.94,0,0,1,1.31-.56v-.14a1.16,1.16,0,0,0-.17-.73.63.63,0,0,0-.49-.2.54.54,0,0,0-.39.13.4.4,0,0,0-.15.3v.23a.41.41,0,0,1-.09.28.32.32,0,0,1-.24.09.29.29,0,0,1-.23-.1.41.41,0,0,1-.1-.27.8.8,0,0,1,.35-.62,1.47,1.47,0,0,1,1-.27,1.75,1.75,0,0,1,.78.15.73.73,0,0,1,.33.38,2,2,0,0,1,.07.68v1.21c0,.33,0,.54,0,.62s0,.13.07.15a.13.13,0,0,0,.1,0,.2.2,0,0,0,.11,0,1.82,1.82,0,0,0,.31-.28v.22c-.28.39-.56.58-.82.58a.42.42,0,0,1-.31-.13A.74.74,0,0,1,141.63,49.49Zm0-.25V47.88c-.39.16-.65.27-.76.33a1.39,1.39,0,0,0-.44.36.71.71,0,0,0,0,.87.51.51,0,0,0,.38.18A1.44,1.44,0,0,0,141.63,49.24Z"/><path class="cls-1" d="M145.14,44.49V49.2a1.32,1.32,0,0,0,.05.44.29.29,0,0,0,.15.16.8.8,0,0,0,.37.06V50H144v-.14a.83.83,0,0,0,.34,0,.35.35,0,0,0,.14-.17,1.37,1.37,0,0,0,.05-.44V46a5.18,5.18,0,0,0,0-.74.3.3,0,0,0-.09-.18.2.2,0,0,0-.15,0,.78.78,0,0,0-.26.06l-.06-.14,1.06-.43Z"/><path class="cls-1" d="M148.13,46.35V49.2a1.32,1.32,0,0,0,.05.44.34.34,0,0,0,.14.17.92.92,0,0,0,.35,0V50H147v-.14a.83.83,0,0,0,.34,0,.36.36,0,0,0,.15-.17,1.37,1.37,0,0,0,.05-.44V47.83a3.88,3.88,0,0,0,0-.75.25.25,0,0,0-.08-.17.25.25,0,0,0-.16,0,.73.73,0,0,0-.26.06l-.06-.14,1.07-.43Zm-.32-1.86a.4.4,0,0,1,.28.67.4.4,0,1,1-.56-.56A.41.41,0,0,1,147.81,44.49Z"/><path class="cls-1" d="M152.19,46.35v1.2h-.13a1.53,1.53,0,0,0-.38-.77.84.84,0,0,0-.59-.21.61.61,0,0,0-.43.15.41.41,0,0,0-.17.32.56.56,0,0,0,.13.37,1.49,1.49,0,0,0,.48.33l.57.28a1.15,1.15,0,0,1,.79,1,1,1,0,0,1-.37.78,1.26,1.26,0,0,1-.82.3,2.64,2.64,0,0,1-.74-.12l-.21,0a.16.16,0,0,0-.14.1h-.13V48.79h.13a1.42,1.42,0,0,0,.41.81,1,1,0,0,0,.69.28.57.57,0,0,0,.43-.16.47.47,0,0,0,.17-.38.58.58,0,0,0-.19-.44,3,3,0,0,0-.74-.47,2.14,2.14,0,0,1-.74-.5.86.86,0,0,1-.18-.56,1,1,0,0,1,.3-.73,1,1,0,0,1,.78-.29,1.77,1.77,0,0,1,.51.08l.26.06.1,0a.48.48,0,0,0,.08-.12Z"/><path class="cls-1" d="M156.78,48.65a1.93,1.93,0,0,1-.56,1.08,1.33,1.33,0,0,1-2-.13,2,2,0,0,1-.45-1.37,1.86,1.86,0,0,1,.5-1.36,1.58,1.58,0,0,1,1.19-.52,1.34,1.34,0,0,1,.86.27.77.77,0,0,1,.34.58.31.31,0,0,1-.1.24.36.36,0,0,1-.26.09.43.43,0,0,1-.35-.15.62.62,0,0,1-.08-.31.55.55,0,0,0-.16-.35.56.56,0,0,0-.38-.12.78.78,0,0,0-.62.29,1.51,1.51,0,0,0-.31,1,2,2,0,0,0,.31,1.13,1,1,0,0,0,.84.48,1,1,0,0,0,.68-.26,1.85,1.85,0,0,0,.42-.64Z"/><path class="cls-1" d="M159.8,46.35a1.57,1.57,0,0,1,1.3.61,1.86,1.86,0,0,1,.41,1.2,2.12,2.12,0,0,1-.23,1,1.65,1.65,0,0,1-.63.74,1.68,1.68,0,0,1-.89.25,1.49,1.49,0,0,1-1.27-.64,2,2,0,0,1-.4-1.21,2.14,2.14,0,0,1,.24-1,1.65,1.65,0,0,1,.64-.71A1.55,1.55,0,0,1,159.8,46.35Zm-.11.25a.84.84,0,0,0-.42.12.79.79,0,0,0-.33.43,1.92,1.92,0,0,0-.13.78,2.68,2.68,0,0,0,.31,1.34.91.91,0,0,0,.81.56.74.74,0,0,0,.62-.31,1.78,1.78,0,0,0,.24-1.06,2.44,2.44,0,0,0-.4-1.49A.84.84,0,0,0,159.69,46.6Z"/></g></g></svg>